<svg width="27" height="27" viewBox="0 0 27 27" fill="none" xmlns="http://www.w3.org/2000/svg">
<path fill-rule="evenodd" clip-rule="evenodd" d="M13.4833 0C17.0866 0 20.0633 2.59508 20.4303 5.91411L20.5327 5.91525C22.5316 5.91525 24.962 7.17001 25.7822 10.6894L26.8699 18.6466C27.26 21.2148 26.772 23.2748 25.4169 24.7524C24.0687 26.2221 21.9347 27 19.2452 27H7.73711C4.78289 27 2.72473 26.3159 1.44406 24.91C0.157885 23.5002 -0.27222 21.3855 0.166157 18.6258L1.23591 10.774C1.93896 7.17392 4.50994 5.91525 6.50056 5.91525C6.67241 4.41745 7.38695 2.99255 8.52053 1.92449C9.82325 0.701001 11.6195 0 13.4543 0H13.4833ZM20.5327 7.86971H6.50056C5.89262 7.86971 3.86065 8.10164 3.27753 11.0776L2.21329 18.8955C1.86728 21.0884 2.13471 22.6754 3.01009 23.6357C3.87443 24.5843 5.42116 25.0455 7.73711 25.0455H19.2452C20.6899 25.0455 22.6626 24.7732 23.8536 23.4728C24.7993 22.4422 25.1247 20.9073 24.8214 18.9098L23.7475 11.0242C23.2898 9.08148 22.0822 7.86971 20.5327 7.86971ZM17.5038 11.4973C18.0745 11.4973 18.5694 11.9351 18.5694 12.4746C18.5694 13.014 18.1379 13.4518 17.5672 13.4518H17.5038C16.9331 13.4518 16.4699 13.014 16.4699 12.4746C16.4699 11.9351 16.9331 11.4973 17.5038 11.4973ZM9.46676 11.4973C10.0375 11.4973 10.5324 11.9351 10.5324 12.4746C10.5324 13.014 10.0995 13.4518 9.5288 13.4518H9.46676C8.89605 13.4518 8.43286 13.014 8.43286 12.4746C8.43286 11.9351 8.89605 11.4973 9.46676 11.4973ZM13.4791 1.95446H13.4585C12.1613 1.95446 10.8971 2.44829 9.98041 3.30956C9.23365 4.01221 8.74526 4.93593 8.58727 5.91464L18.3464 5.91501C17.9921 3.67619 15.9438 1.95446 13.4791 1.95446Z" fill="black"/>
</svg>
