<svg width="15" height="15" viewBox="0 0 15 15" fill="none" xmlns="http://www.w3.org/2000/svg">
<path d="M14.25 7.2345V14.25C14.25 14.4489 14.171 14.6397 14.0303 14.7803C13.8897 14.921 13.6989 15 13.5 15H1.5C1.30109 15 1.11033 14.921 0.969673 14.7803C0.829021 14.6397 0.750003 14.4489 0.750003 14.25V7.2345C0.26574 6.68697 -0.00108246 5.98096 3.30061e-06 5.25V0.75C3.30061e-06 0.551088 0.0790209 0.360322 0.219673 0.21967C0.360325 0.0790176 0.551091 0 0.750003 0H14.25C14.4489 0 14.6397 0.0790176 14.7803 0.21967C14.921 0.360322 15 0.551088 15 0.75V5.25C15.0007 5.98089 14.734 6.68679 14.25 7.2345ZM12.75 8.1555C12.2136 8.29303 11.6497 8.27982 11.1203 8.11731C10.591 7.9548 10.1168 7.64931 9.75 7.2345C9.46877 7.55406 9.12259 7.80995 8.73459 7.98506C8.34659 8.16018 7.92569 8.25051 7.5 8.25C7.07431 8.25051 6.65341 8.16018 6.26541 7.98506C5.87741 7.80995 5.53123 7.55406 5.25 7.2345C4.88424 7.6507 4.4101 7.95718 3.88041 8.1198C3.35073 8.28241 2.7863 8.29477 2.25 8.1555V13.5H12.75V8.1555ZM9 5.25C9 5.05109 9.07902 4.86032 9.21967 4.71967C9.36032 4.57902 9.55109 4.5 9.75 4.5C9.94891 4.5 10.1397 4.57902 10.2803 4.71967C10.421 4.86032 10.5 5.05109 10.5 5.25C10.5 5.64782 10.658 6.02936 10.9393 6.31066C11.2206 6.59196 11.6022 6.75 12 6.75C12.3978 6.75 12.7794 6.59196 13.0607 6.31066C13.342 6.02936 13.5 5.64782 13.5 5.25V1.5H1.5V5.25C1.5 5.64782 1.65804 6.02936 1.93934 6.31066C2.22065 6.59196 2.60218 6.75 3 6.75C3.39783 6.75 3.77936 6.59196 4.06066 6.31066C4.34197 6.02936 4.5 5.64782 4.5 5.25C4.5 5.05109 4.57902 4.86032 4.71967 4.71967C4.86032 4.57902 5.05109 4.5 5.25 4.5C5.44891 4.5 5.63968 4.57902 5.78033 4.71967C5.92098 4.86032 6 5.05109 6 5.25C6 5.64782 6.15804 6.02936 6.43934 6.31066C6.72065 6.59196 7.10218 6.75 7.5 6.75C7.89783 6.75 8.27936 6.59196 8.56066 6.31066C8.84197 6.02936 9 5.64782 9 5.25Z" fill="#4ECB71"/>
</svg>
