<svg width="27" height="27" viewBox="0 0 27 27" fill="none" xmlns="http://www.w3.org/2000/svg">
<path d="M11.625 4.125C11.625 3.03098 11.1904 1.98177 10.4168 1.20818C9.64323 0.434597 8.59402 0 7.5 0C6.40598 0 5.35677 0.434597 4.58318 1.20818C3.8096 1.98177 3.375 3.03098 3.375 4.125C3.375 5.21902 3.8096 6.26823 4.58318 7.04182C5.35677 7.8154 6.40598 8.25 7.5 8.25C8.59402 8.25 9.64323 7.8154 10.4168 7.04182C11.1904 6.26823 11.625 5.21902 11.625 4.125ZM4.875 4.125C4.875 3.78028 4.9429 3.43894 5.07482 3.12046C5.20673 2.80198 5.40009 2.5126 5.64384 2.26884C5.8876 2.02509 6.17698 1.83173 6.49546 1.69982C6.81394 1.5679 7.15528 1.5 7.5 1.5C7.84472 1.5 8.18606 1.5679 8.50454 1.69982C8.82302 1.83173 9.1124 2.02509 9.35616 2.26884C9.59991 2.5126 9.79327 2.80198 9.92518 3.12046C10.0571 3.43894 10.125 3.78028 10.125 4.125C10.125 4.82119 9.84844 5.48887 9.35616 5.98116C8.86387 6.47344 8.19619 6.75 7.5 6.75C6.80381 6.75 6.13613 6.47344 5.64384 5.98116C5.15156 5.48887 4.875 4.82119 4.875 4.125ZM2.25 9.75H8.5245C8.2785 10.215 8.0955 10.719 7.9875 11.25H2.25C2.05109 11.25 1.86032 11.329 1.71967 11.4697C1.57902 11.6103 1.5 11.8011 1.5 12V12.75C1.5 14.64 3.1485 16.671 6.144 17.145C5.661 17.475 5.259 17.9145 4.9725 18.426C1.8075 17.5695 0 15.1305 0 12.75V12C0 11.4033 0.237053 10.831 0.65901 10.409C1.08097 9.98705 1.65326 9.75 2.25 9.75ZM10.3185 9.75C11.0745 8.835 12.219 8.25 13.5 8.25C14.3983 8.24843 15.2725 8.54079 15.9891 9.08245C16.7057 9.62411 17.2254 10.3853 17.469 11.25C17.6861 12.0217 17.6739 12.84 17.4338 13.6049C17.1937 14.3698 16.7362 15.0483 16.117 15.5576C15.4978 16.0668 14.7438 16.3849 13.9469 16.4728C13.1501 16.5608 12.3449 16.4149 11.6295 16.053C11.0787 15.7727 10.598 15.3722 10.2228 14.8811C9.84756 14.39 9.58749 13.8209 9.46178 13.2158C9.33607 12.6107 9.34792 11.9851 9.49647 11.3852C9.64502 10.7854 9.92496 10.2265 10.3185 9.75ZM11.13 11.25C10.9823 11.5616 10.8974 11.8993 10.8801 12.2437C10.8629 12.5882 10.9137 12.9326 11.0295 13.2575C11.2636 13.9135 11.7486 14.4496 12.378 14.748C13.0074 15.0464 13.7295 15.0825 14.3855 14.8485C15.0415 14.6144 15.5776 14.1294 15.876 13.5C16.1744 12.8704 16.2104 12.1481 15.9762 11.492C15.7421 10.8359 15.2568 10.2996 14.6273 10.0013C13.9977 9.70288 13.2754 9.66682 12.6192 9.90101C11.9631 10.1352 11.4269 10.6204 11.1285 11.25M22.0275 18.426C21.7418 17.9142 21.3407 17.4761 20.856 17.1465C23.85 16.671 25.5 14.6385 25.5 12.75V12C25.5 11.8011 25.421 11.6103 25.2803 11.4697C25.1397 11.329 24.9489 11.25 24.75 11.25H19.0125C18.9065 10.727 18.7262 10.2219 18.477 9.75H24.75C25.3467 9.75 25.919 9.98705 26.341 10.409C26.7629 10.831 27 11.4033 27 12V12.75C27 15.1305 25.191 17.568 22.0275 18.426ZM20.2305 18.5565C19.8211 18.1971 19.2948 17.9993 18.75 18H8.25C7.9543 17.9992 7.66137 18.0569 7.38803 18.1697C7.11469 18.2825 6.86633 18.4482 6.65724 18.6572C6.44815 18.8663 6.28245 19.1147 6.16966 19.388C6.05687 19.6614 5.99921 19.9543 6 20.25V21C6 23.9565 8.79 27 13.5 27C18.21 27 21 23.9565 21 21V20.25C21 19.575 20.703 18.969 20.2305 18.555M7.5 20.25C7.5 20.0511 7.57902 19.8603 7.71967 19.7197C7.86032 19.579 8.05109 19.5 8.25 19.5H18.75C18.9489 19.5 19.1397 19.579 19.2803 19.7197C19.421 19.8603 19.5 20.0511 19.5 20.25V21C19.5 23.157 17.352 25.5 13.5 25.5C9.648 25.5 7.5 23.157 7.5 21V20.25ZM19.5 0C20.594 0 21.6432 0.434597 22.4168 1.20818C23.1904 1.98177 23.625 3.03098 23.625 4.125C23.625 5.21902 23.1904 6.26823 22.4168 7.04182C21.6432 7.8154 20.594 8.25 19.5 8.25C18.406 8.25 17.3568 7.8154 16.5832 7.04182C15.8096 6.26823 15.375 5.21902 15.375 4.125C15.375 3.03098 15.8096 1.98177 16.5832 1.20818C17.3568 0.434597 18.406 0 19.5 0ZM19.5 1.5C18.8038 1.5 18.1361 1.77656 17.6438 2.26884C17.1516 2.76113 16.875 3.42881 16.875 4.125C16.875 4.82119 17.1516 5.48887 17.6438 5.98116C18.1361 6.47344 18.8038 6.75 19.5 6.75C20.1962 6.75 20.8639 6.47344 21.3562 5.98116C21.8484 5.48887 22.125 4.82119 22.125 4.125C22.125 3.42881 21.8484 2.76113 21.3562 2.26884C20.8639 1.77656 20.1962 1.5 19.5 1.5Z" fill="black"/>
</svg>
