<svg width="20" height="19" viewBox="0 0 20 19" fill="none" xmlns="http://www.w3.org/2000/svg">
<path d="M11.014 15H11.0103L11.0089 14.9944C11.0075 14.9888 11.0056 14.9804 11.0036 14.9701C11.0016 14.9597 10.9994 14.9466 10.9978 14.9312C10.9961 14.9158 10.9948 14.8974 10.9948 14.8767C10.9947 14.8413 10.9985 14.7983 11.0107 14.7512L11.014 15ZM11.014 15C11.022 14.9999 11.03 14.9997 11.038 14.9994C11.0154 14.9174 11.014 14.8311 11.034 14.7487C11.0548 14.6626 11.0942 14.5987 11.1271 14.5569C11.1294 14.554 11.1318 14.551 11.1342 14.5482M11.014 15V14.7392C11.0153 14.7347 11.0166 14.7302 11.018 14.7257C11.027 14.6973 11.0388 14.669 11.0535 14.6414C11.0682 14.6138 11.0852 14.5882 11.104 14.5647C11.111 14.5559 11.1182 14.5475 11.1255 14.5395L11.1342 14.5482M11.1342 14.5482L11.384 14.798M11.1342 14.5482C11.1345 14.5478 11.1348 14.5474 11.1351 14.5471C11.1647 14.5113 11.1954 14.4845 11.2213 14.4652L11.2931 14.573L11.3245 14.6202L11.3577 14.6864L11.363 14.709L11.3834 14.7954L11.384 14.798M11.384 14.798L11.4108 14.9118C11.4227 14.9064 11.4344 14.9009 11.4461 14.895L11.4474 14.8733L11.4478 14.8667L11.443 14.857L11.4349 14.8489L11.384 14.798ZM15.0613 1.94019C14.9232 1.80111 14.7589 1.69071 14.578 1.61534C14.3967 1.53983 14.2023 1.50097 14.0059 1.50101L13.9862 1.50101L13.9666 1.50256C13.8154 1.5145 13.2656 1.59335 12.6411 2.09504C12.641 2.0951 12.6409 2.09516 12.6408 2.09522L15.0613 1.94019ZM15.0613 1.94019C15.3435 2.2228 15.5 2.60063 15.5 3.00001C15.5 3.40412 15.3402 3.77861 15.0473 4.07382L12.3622 6.89474L12.0001 7.27516L11.6379 6.8948L8.93469 4.05578C8.655 3.77362 8.5 3.39749 8.5 3.00001C8.5 2.60062 8.65647 2.22321 8.93894 1.93996C9.21218 1.66282 9.58379 1.50471 9.97301 1.50005L9.986 1.49989L9.99898 1.50041C10.1046 1.50463 10.6921 1.56037 11.3588 2.09491L11.3589 2.09504C11.4557 2.17273 11.5506 2.25862 11.6444 2.35135L11.6466 2.35345L11.6466 2.35346L12 2.7069L15.0613 1.94019ZM11.6203 18.5H11.62H2C1.17314 18.5 0.5 17.8269 0.5 17V11C0.5 10.1732 1.17314 9.50001 2 9.50001L7.146 9.50001L7.14766 9.50001C7.79755 9.49785 8.43506 9.67771 8.98798 10.0192C9.5409 10.3608 9.98715 10.8503 10.2762 11.4324L10.2767 11.4335L10.8937 12.6685L11.1702 13.2218L11.6533 12.8355L14.8368 10.2897C15.1648 10.0318 15.5514 9.85861 15.9622 9.7854C16.3731 9.71218 16.7957 9.74123 17.1928 9.86997C17.1933 9.87016 17.1939 9.87034 17.1944 9.87052L19.1587 10.5253C19.2364 10.5512 19.3066 10.5959 19.3631 10.6554C19.4195 10.7149 19.4604 10.7874 19.4823 10.8664C19.5041 10.9454 19.5062 11.0286 19.4883 11.1087C19.4704 11.1887 19.4331 11.2631 19.3797 11.3253L19.3794 11.3256L14.2774 17.2776L14.2772 17.2779C13.9489 17.6614 13.5414 17.9692 13.0827 18.1802C12.624 18.3912 12.1251 18.5003 11.6203 18.5ZM2 10.5H1.5V11V17V17.5H2H11.62H11.6207C11.9792 17.4995 12.3335 17.4228 12.6602 17.275C12.9868 17.1271 13.2783 16.9115 13.5152 16.6425L13.5153 16.6425L13.5197 16.6374L17.6527 11.8144L18.1362 11.2501L17.4314 11.0148L16.8746 10.8288C16.3955 10.6686 15.8582 10.7664 15.4651 11.0784L15.4636 11.0796L11.3974 14.3328L11.338 14.3129L11.2669 14.384H9.82461L9.99861 14.5H5.5V13.5H9.382H10.1906L9.82931 12.7766L9.38231 11.8816L9.38221 11.8814C8.95641 11.0298 8.09815 10.5 7.146 10.5H2ZM11.0066 14.7259C11.0078 14.7223 11.009 14.7188 11.0102 14.7153L11.0107 14.7506C11.0085 14.7591 11.0066 14.7674 11.0049 14.7755C10.9969 14.8144 10.9947 14.8488 10.9947 14.8762C10.9947 14.9035 10.9969 14.9264 10.9992 14.9433C11.0015 14.9601 11.0042 14.9738 11.0062 14.9828C11.0071 14.9868 11.0079 14.9904 11.0086 14.9934C11.0093 14.9961 11.0098 14.9983 11.0103 15H10.9948C10.9933 14.994 10.992 14.9879 10.9907 14.9817C10.9738 14.8972 10.9789 14.809 11.0066 14.7259ZM11.1252 14.5392C11.1124 14.5533 11.1003 14.5682 11.0889 14.584C11.074 14.6047 11.061 14.6261 11.0497 14.6482C11.0338 14.6791 11.0223 14.7095 11.014 14.7385V14.7051C11.0423 14.6309 11.0834 14.5756 11.1219 14.5359L11.1252 14.5392ZM11.456 14.89L11.459 14.889L11.456 14.89ZM11.4749 14.8856C11.4753 14.8857 11.4757 14.8858 11.476 14.8859L11.4749 14.8856ZM11.4777 14.8854L11.4776 14.8861L11.4777 14.8854ZM11.7185 1.11821L12.0001 1.31009L12.2816 1.11815C13.1441 0.530192 13.8753 0.501668 13.9864 0.500009H14L14.002 0.500011L14.0033 0.500008C14.3311 0.499184 14.6558 0.563407 14.9586 0.688958C15.2614 0.814508 15.5363 0.99889 15.7673 1.23143L15.7681 1.23225C16.2399 1.70482 16.5 2.3309 16.5 3.00001C16.5 3.66945 16.2407 4.29508 15.7678 4.76714L15.7676 4.76703L15.7588 4.77629L12.3644 8.34262C12.3642 8.34287 12.3639 8.34312 12.3637 8.34337C12.3167 8.39213 12.2603 8.43095 12.198 8.45753C12.1354 8.48424 12.068 8.49803 11.9999 8.49808C11.9318 8.49813 11.8644 8.48443 11.8017 8.4578C11.7394 8.43132 11.683 8.39261 11.6359 8.34396C11.6356 8.34368 11.6354 8.3434 11.6351 8.34312L8.22313 4.75925L8.22323 4.75915L8.21488 4.75078C7.76165 4.29672 7.5 3.67127 7.5 3.00001C7.5 2.33103 7.76005 1.70491 8.23287 1.23125C8.702 0.761282 9.32701 0.501108 9.99377 0.500013L10.0153 0.500732L10.0153 0.500772L10.0217 0.500903C10.1523 0.503596 10.8714 0.541015 11.7185 1.11821Z" stroke="#2BC09F"/>
</svg>
