<svg width="21" height="21" viewBox="0 0 21 21" fill="none" xmlns="http://www.w3.org/2000/svg">
<path d="M9.16112 2.32889C7.36112 4.13009 7.04192 6.98489 7.09472 9.14489C7.09756 9.26809 7.05314 9.38771 6.97058 9.4792C6.88802 9.57069 6.77357 9.62711 6.65072 9.63689C4.81952 9.75929 2.58272 10.1265 0.739523 11.1081C0.122723 11.4381 -0.104077 12.0645 0.0435226 12.6357C0.187523 13.1805 0.649522 13.6257 1.27712 13.7433C2.15842 13.904 3.03079 14.1103 3.89072 14.3613C4.30352 14.4861 4.67312 14.6193 4.97312 14.7573C5.28392 14.8989 5.47712 15.0273 5.57552 15.1257C5.67392 15.2241 5.80112 15.4173 5.94272 15.7269C6.08072 16.0269 6.21272 16.3965 6.33872 16.8105C6.58832 17.6361 6.79592 18.5913 6.95312 19.4229C7.07072 20.0505 7.51592 20.5149 8.05952 20.6565C8.63192 20.8065 9.25832 20.5797 9.58712 19.9605C10.5687 18.1197 10.9371 15.8829 11.0607 14.0517C11.0705 13.9288 11.1269 13.8144 11.2184 13.7318C11.3099 13.6493 11.4295 13.6048 11.5527 13.6077C13.7127 13.6605 16.5687 13.3437 18.3687 11.5413C19.4391 10.4709 19.9719 9.04289 20.2155 7.64009C20.4603 6.23249 20.4243 4.79969 20.3151 3.65609C20.2393 2.81361 19.8702 2.02447 19.2722 1.42623C18.6742 0.827992 17.8852 0.458612 17.0427 0.382487C15.8991 0.273287 14.4663 0.238488 13.0611 0.482088C11.6571 0.725688 10.2303 1.25849 9.16112 2.32889ZM14.7003 3.29729C14.939 3.29729 15.1679 3.39211 15.3367 3.56089C15.5055 3.72967 15.6003 3.95859 15.6003 4.19729C15.6003 4.43598 15.5055 4.6649 15.3367 4.83368C15.1679 5.00247 14.939 5.09729 14.7003 5.09729C14.4616 5.09729 14.2327 5.00247 14.0639 4.83368C13.8951 4.6649 13.8003 4.43598 13.8003 4.19729C13.8003 3.95859 13.8951 3.72967 14.0639 3.56089C14.2327 3.39211 14.4616 3.29729 14.7003 3.29729Z" fill="#2BC09F"/>
</svg>
