<svg width="21" height="21" viewBox="0 0 21 21" fill="none" xmlns="http://www.w3.org/2000/svg">
<path d="M9.69175 2.8589L9.69163 2.85902C8.12563 4.42606 7.79245 6.99726 7.8445 9.12654L7.84452 9.12758C7.85178 9.44233 7.7383 9.74792 7.52738 9.98165C7.31645 10.2154 7.02406 10.3595 6.71022 10.3845L6.70075 10.3853L6.70074 10.3852C4.91087 10.5048 2.79827 10.8616 1.09282 11.7696C0.791883 11.9309 0.706389 12.1999 0.769157 12.446C0.837534 12.7015 1.0639 12.9397 1.41381 13.0058C1.41429 13.0059 1.41477 13.006 1.41525 13.0061L1.27712 13.7433C2.15842 13.904 3.03079 14.1102 3.89072 14.3613L9.69175 2.8589ZM9.69175 2.8589C10.6121 1.93756 11.8714 1.4497 13.1892 1.22104L9.69175 2.8589ZM5.57552 15.1257L6.10585 14.5953C5.9142 14.4037 5.62663 14.2309 5.28528 14.0753C5.28488 14.0751 5.28447 14.0749 5.28407 14.0748L5.57552 15.1257ZM5.57552 15.1257L6.10585 14.5953C6.29846 14.7879 6.47007 15.0768 6.62443 15.4142C6.782 15.7568 6.92522 16.1617 7.05623 16.5921L7.05663 16.5934C7.31743 17.4561 7.5308 18.441 7.69007 19.2836L7.69029 19.2847C7.75665 19.6388 7.99769 19.8653 8.24858 19.9307L8.24964 19.931C8.49602 19.9955 8.76406 19.9113 8.92472 19.6087L8.92533 19.6076C9.83354 17.9044 10.1916 15.7915 10.3124 14.0012L10.313 13.9922L10.3131 13.9922C10.3381 13.6783 10.4822 13.3859 10.7159 13.175C10.9497 12.9641 11.2553 12.8506 11.57 12.8579L11.571 12.8579C13.7012 12.91 16.2726 12.5788 17.838 11.0113L17.8384 11.0109C18.76 10.0893 19.2479 8.82851 19.4766 7.51174L19.4766 7.51156C19.7058 6.19386 19.6742 4.83385 19.5685 3.72736L19.5681 3.72329C19.5081 3.05574 19.2156 2.43046 18.7418 1.95644C18.2679 1.48242 17.6427 1.18974 16.9752 1.12942L16.9714 1.12908C15.8654 1.02346 14.5051 0.992939 13.1893 1.22102L5.57552 15.1257ZM15.867 3.03054C15.5576 2.7211 15.1379 2.54726 14.7003 2.54726C14.2627 2.54726 13.843 2.7211 13.5336 3.03054C13.2242 3.33997 13.0503 3.75966 13.0503 4.19726C13.0503 4.63487 13.2242 5.05456 13.5336 5.36399C13.843 5.67343 14.2627 5.84726 14.7003 5.84726C15.1379 5.84726 15.5576 5.67343 15.867 5.36399C16.1765 5.05456 16.3503 4.63487 16.3503 4.19726C16.3503 3.75966 16.1765 3.33997 15.867 3.03054Z" stroke="#2BC09F" stroke-width="1.5"/>
</svg>
