<svg width="42" height="74" viewBox="0 0 42 74" fill="none" xmlns="http://www.w3.org/2000/svg">
<path fill-rule="evenodd" clip-rule="evenodd" d="M41.6053 0V34.7248C41.6053 38.4979 40.1803 41.4857 37.8374 43.4697C35.5517 45.4018 32.603 46.2001 29.7816 46.0805C26.5208 45.9453 23.1143 44.5281 20.8261 41.8861C20.2358 46.6447 21.9364 49.8093 22.7087 50.6441L24.4769 52.5501L20.6648 56.0865L18.8966 54.1805C16.7799 51.8974 14.5072 46.5173 15.9608 39.4886C13.7365 39.9569 11.4395 39.9622 9.21297 39.5042C6.88047 39.0102 4.58699 37.9466 2.84996 36.1602C1.07134 34.3322 0 31.8697 0 28.9053C0 24.6303 1.52639 21.5411 4.25414 19.2841C6.77646 17.196 10.2011 15.9426 13.6647 14.8219C14.476 14.5619 15.3056 14.3018 16.1507 14.034C22.7529 11.9615 30.2549 9.60562 37.3252 3.62486L41.6053 0ZM23.3016 34.5636C24.3963 32.5561 25.9019 30.4083 27.9354 28.1486L29.6776 26.2165L25.8109 22.7373L24.0687 24.6693C21.4943 27.5297 19.6169 30.3121 18.2855 32.9514C16.3301 34.3868 13.1837 35.0291 10.2895 34.4154C8.72151 34.0825 7.43955 33.4195 6.57624 32.5327C5.75453 31.6902 5.20066 30.5357 5.20066 28.9027C5.20066 26.0787 6.11078 24.4951 7.56956 23.286C9.23117 21.913 11.7405 20.9093 15.2665 19.7677C16.0336 19.5207 16.8397 19.2685 17.6745 19.0058C23.0805 17.3182 29.792 15.2223 36.4046 10.8122V34.7248C36.4046 37.1041 35.5543 38.5889 34.4804 39.4964C33.3492 40.4534 31.7422 40.9578 30 40.885C26.5468 40.742 23.4732 38.4823 23.3016 34.5636Z" fill="#2BC09F"/>
<path d="M20.8027 70.6147L21.9936 72.9264L20.8391 73.5193L19.6689 72.955L20.8027 70.6147Z" fill="white"/>
</svg>
