<svg width="22" height="21" viewBox="0 0 22 21" fill="none" xmlns="http://www.w3.org/2000/svg">
<path d="M20.172 5.97554H16.4864C16.5273 5.9416 16.5694 5.90869 16.6093 5.8727C16.9284 5.5952 17.1855 5.25623 17.3647 4.87701C17.5438 4.49778 17.6411 4.08644 17.6505 3.66873C17.6643 3.21176 17.5825 2.75685 17.4102 2.33193C17.2379 1.90701 16.9787 1.52105 16.6485 1.19774C16.3184 0.874422 15.9241 0.620581 15.4901 0.451796C15.0561 0.283011 14.5914 0.202845 14.1246 0.216219C13.6977 0.225219 13.2773 0.320385 12.8897 0.495759C12.5021 0.671132 12.1556 0.922938 11.872 1.23541C11.4796 1.68062 11.1606 2.18307 10.9265 2.72461C10.6924 2.18307 10.3733 1.68062 9.98092 1.23541C9.69732 0.922938 9.35088 0.671132 8.96328 0.495759C8.57569 0.320385 8.15528 0.225219 7.72838 0.216219C7.26156 0.202845 6.79687 0.283011 6.36284 0.451796C5.92881 0.620581 5.5346 0.874422 5.20442 1.19774C4.87423 1.52105 4.61504 1.90701 4.44274 2.33193C4.27045 2.75685 4.18869 3.21176 4.20249 3.66873C4.21183 4.08644 4.30912 4.49778 4.48827 4.87701C4.66742 5.25623 4.92458 5.5952 5.24366 5.8727C5.28358 5.90664 5.32561 5.93955 5.36658 5.97554H1.681C1.23517 5.97554 0.8076 6.14891 0.492352 6.45751C0.177104 6.7661 0 7.18465 0 7.62106V10.9121C0 11.3485 0.177104 11.7671 0.492352 12.0757C0.8076 12.3843 1.23517 12.5576 1.681 12.5576V19.1397C1.681 19.5761 1.8581 19.9947 2.17335 20.3033C2.4886 20.6119 2.91617 20.7852 3.36199 20.7852H18.491C18.9368 20.7852 19.3644 20.6119 19.6796 20.3033C19.9949 19.9947 20.172 19.5761 20.172 19.1397V12.5576C20.6178 12.5576 21.0454 12.3843 21.3606 12.0757C21.6759 11.7671 21.853 11.3485 21.853 10.9121V7.62106C21.853 7.18465 21.6759 6.7661 21.3606 6.45751C21.0454 6.14891 20.6178 5.97554 20.172 5.97554ZM13.1328 2.32557C13.2659 2.18171 13.4279 2.06634 13.6087 1.9867C13.7895 1.90705 13.9852 1.86486 14.1834 1.86277H14.2349C14.4673 1.86419 14.697 1.911 14.9106 2.00045C15.1243 2.0899 15.3175 2.22019 15.4791 2.38369C15.6406 2.5472 15.7672 2.74062 15.8514 2.95262C15.9356 3.16463 15.9758 3.39095 15.9695 3.61833C15.9673 3.8124 15.9242 4.00394 15.8429 4.18092C15.7615 4.35791 15.6437 4.51651 15.4967 4.64678C14.4996 5.51068 12.8449 5.8151 11.8195 5.92206C11.9456 4.83293 12.2923 3.25015 13.1328 2.32557ZM6.39934 2.3626C6.72498 2.04387 7.16599 1.86387 7.62647 1.86174H7.67795C7.8762 1.86383 8.07187 1.90603 8.25267 1.98567C8.43347 2.06531 8.5955 2.18068 8.72858 2.32454C9.61005 3.29951 9.92103 4.91624 10.0303 5.91589C9.00909 5.81305 7.35751 5.50451 6.36152 4.64164C6.21456 4.51137 6.0967 4.35276 6.01534 4.17578C5.93398 3.9988 5.89088 3.80726 5.88874 3.61319C5.88223 3.38203 5.92375 3.15199 6.0108 2.93701C6.09785 2.72203 6.22861 2.52661 6.39514 2.3626H6.39934ZM1.681 7.62106H10.086V10.9121H1.681V7.62106ZM3.36199 12.5576H10.086V19.1397H3.36199V12.5576ZM18.491 19.1397H11.767V12.5576H18.491V19.1397ZM20.172 10.9121H11.767V7.62106H20.172V10.9121Z" fill="#2BC09F"/>
</svg>
