<svg width="20" height="21" viewBox="0 0 20 21" fill="none" xmlns="http://www.w3.org/2000/svg">
<path d="M9.95 16.3734C10.3 16.3734 10.596 16.2549 10.838 16.018C11.08 15.7811 11.2007 15.4917 11.2 15.1498C11.2 14.8071 11.0793 14.5174 10.838 14.2805C10.5967 14.0436 10.3007 13.9255 9.95 13.9261C9.6 13.9261 9.30433 14.0446 9.063 14.2815C8.82167 14.5184 8.70067 14.8078 8.7 15.1498C8.7 15.4924 8.821 15.7821 9.063 16.019C9.305 16.2559 9.60067 16.374 9.95 16.3734ZM9.05 12.6046H10.9C10.9 12.0662 10.9627 11.6421 11.088 11.3321C11.2133 11.0221 11.5673 10.5979 12.15 10.0595C12.5833 9.63531 12.925 9.23136 13.175 8.84763C13.425 8.4639 13.55 8.00317 13.55 7.46543C13.55 6.55179 13.2083 5.85025 12.525 5.3608C11.8417 4.87135 11.0333 4.62663 10.1 4.62663C9.15 4.62663 8.379 4.87135 7.787 5.3608C7.195 5.85025 6.78267 6.43759 6.55 7.12281L8.2 7.7591C8.28333 7.46543 8.471 7.14729 8.763 6.80467C9.055 6.46206 9.50067 6.29075 10.1 6.29075C10.6333 6.29075 11.0333 6.43367 11.3 6.71951C11.5667 7.00535 11.7 7.31925 11.7 7.66121C11.7 7.98751 11.6 8.29357 11.4 8.57941C11.2 8.86525 10.95 9.1302 10.65 9.37428C9.91667 10.0106 9.46667 10.4918 9.3 10.8181C9.13333 11.1444 9.05 11.7399 9.05 12.6046ZM10 20.289C8.61667 20.289 7.31667 20.0318 6.1 19.5176C4.88333 19.0033 3.825 18.3061 2.925 17.4257C2.025 16.5447 1.31267 15.5087 0.788 14.3177C0.263333 13.1267 0.000666667 11.8541 0 10.5C0 9.14587 0.262667 7.8733 0.788 6.68231C1.31333 5.49132 2.02567 4.45532 2.925 3.57432C3.825 2.69331 4.88333 1.99601 6.1 1.48241C7.31667 0.96882 8.61667 0.711697 10 0.711044C11.3833 0.711044 12.6833 0.968168 13.9 1.48241C15.1167 1.99666 16.175 2.69396 17.075 3.57432C17.975 4.45532 18.6877 5.49132 19.213 6.68231C19.7383 7.8733 20.0007 9.14587 20 10.5C20 11.8541 19.7373 13.1267 19.212 14.3177C18.6867 15.5087 17.9743 16.5447 17.075 17.4257C16.175 18.3067 15.1167 19.0043 13.9 19.5186C12.6833 20.0328 11.3833 20.2896 10 20.289ZM10 18.3312C12.2333 18.3312 14.125 17.5725 15.675 16.0552C17.225 14.538 18 12.6862 18 10.5C18 8.3138 17.225 6.46206 15.675 4.94477C14.125 3.42748 12.2333 2.66884 10 2.66884C7.76667 2.66884 5.875 3.42748 4.325 4.94477C2.775 6.46206 2 8.3138 2 10.5C2 12.6862 2.775 14.538 4.325 16.0552C5.875 17.5725 7.76667 18.3312 10 18.3312Z" fill="#2BC09F"/>
</svg>
