<svg width="22" height="25" viewBox="0 0 22 25" fill="none" xmlns="http://www.w3.org/2000/svg">
<path fill-rule="evenodd" clip-rule="evenodd" d="M12.3465 16.6137C13.6152 16.6137 14.6478 17.7448 14.6478 19.1352V22.711C14.6478 23.0098 14.8649 23.2493 15.1431 23.2562H17.1515C18.7342 23.2562 20.0208 21.8543 20.0208 20.1314V9.98971C20.0134 9.39683 19.7574 8.83883 19.318 8.46799L12.3707 2.35553C11.4382 1.54061 10.1337 1.54061 9.19797 2.35785L2.29818 8.46567C1.84191 8.84813 1.58586 9.40613 1.58059 10.0095V20.1314C1.58059 21.8543 2.86719 23.2562 4.44988 23.2562H6.47725C6.76281 23.2562 6.99463 23.0063 6.99463 22.6994C6.99463 22.632 7.00201 22.5645 7.01465 22.5006V19.1352C7.01465 17.7529 8.04098 16.623 9.30019 16.6137H12.3465ZM17.1515 25H15.1241C13.9629 24.9698 13.0673 23.9642 13.0673 22.711V19.1352C13.0673 18.7062 12.7438 18.3574 12.3465 18.3574H9.30545C8.91663 18.3598 8.59524 18.7097 8.59524 19.1352V22.6994C8.59524 22.7866 8.58471 22.8703 8.56258 22.9493C8.44878 24.1002 7.55732 25 6.47725 25H4.44988C1.99576 25 0 22.8157 0 20.1314V10.0013C0.0105373 8.84581 0.493144 7.78792 1.32664 7.09158L8.21274 0.994234C9.72905 -0.331024 11.8418 -0.331024 13.3549 0.991909L20.2905 7.09507C21.1051 7.77979 21.5877 8.83534 21.6014 9.97692V20.1314C21.6014 22.8157 19.6056 25 17.1515 25Z" fill="black"/>
</svg>
