<svg width="36" height="37" viewBox="0 0 36 37" fill="none" xmlns="http://www.w3.org/2000/svg">
<ellipse cx="17.9759" cy="18.5" rx="17.9759" ry="18.5" fill="#2BC09F"/>
<path d="M15.3728 12.7929C16.7928 10.8889 18.9278 10.3329 20.8918 10.8679C23.0118 11.4449 24.8758 13.2659 25.4948 15.8019C25.5268 15.9319 25.5548 16.0619 25.5778 16.1919C24.6842 15.8737 23.7123 15.8492 22.8038 16.1219C21.5168 15.1699 19.9228 15.0099 18.5058 15.5319C16.7308 16.1869 15.3448 17.8479 15.0238 19.9379C14.6138 22.6139 16.2438 25.0179 18.5488 27.0619L18.9368 27.3979C18.6238 27.4199 18.3058 27.3709 18.0018 27.3059C17.8456 27.2725 17.6902 27.2352 17.5358 27.1939L16.9988 27.0439C12.2248 25.7009 9.02881 23.5999 8.11181 20.4599C7.37981 17.9539 8.08381 15.4449 9.63181 13.8849C11.0658 12.4399 13.1918 11.8539 15.3728 12.7929ZM17.0008 20.2409C17.4288 17.4489 20.6578 16.0729 22.3158 18.4689C22.3317 18.4912 22.3557 18.5063 22.3827 18.511C22.4096 18.5157 22.4373 18.5095 22.4598 18.4939C24.8368 16.8099 27.3998 19.2069 26.8468 21.9769C26.5268 23.5829 25.0368 24.9169 22.3768 25.9769L21.9418 26.1469L21.6788 26.2549C21.4518 26.3439 21.2118 26.4149 20.9948 26.3769C20.7788 26.3389 20.5778 26.1889 20.3948 26.0289L20.0848 25.7489C17.7718 23.7579 16.7438 21.9219 17.0008 20.2409Z" fill="white"/>
</svg>
