<svg width="19" height="24" viewBox="0 0 19 24" fill="none" xmlns="http://www.w3.org/2000/svg">
<path d="M9.28125 13.6875C8.44686 13.6875 7.63121 13.4401 6.93744 12.9765C6.24367 12.513 5.70294 11.8541 5.38364 11.0832C5.06433 10.3123 4.98078 9.46407 5.14356 8.64572C5.30635 7.82736 5.70814 7.07565 6.29815 6.48565C6.88815 5.89564 7.63986 5.49385 8.45822 5.33106C9.27657 5.16828 10.1248 5.25183 10.8957 5.57114C11.6666 5.89044 12.3255 6.43117 12.789 7.12494C13.2526 7.81871 13.5 8.63436 13.5 9.46875C13.4987 10.5872 13.0538 11.6595 12.2629 12.4504C11.472 13.2413 10.3997 13.6862 9.28125 13.6875ZM9.28125 6.9375C8.78062 6.9375 8.29123 7.08596 7.87497 7.3641C7.4587 7.64223 7.13427 8.03756 6.94268 8.50008C6.7511 8.96261 6.70097 9.47156 6.79864 9.96257C6.89631 10.4536 7.13739 10.9046 7.49139 11.2586C7.84539 11.6126 8.29642 11.8537 8.78743 11.9514C9.27844 12.049 9.78739 11.9989 10.2499 11.8073C10.7124 11.6157 11.1078 11.2913 11.3859 10.875C11.664 10.4588 11.8125 9.96939 11.8125 9.46875C11.8118 8.79763 11.5449 8.15418 11.0704 7.67963C10.5958 7.20507 9.95238 6.93817 9.28125 6.9375Z" fill="#2BC09F"/>
<path d="M9.28126 23.8125L2.16338 15.418C2.06448 15.292 1.9666 15.1651 1.86976 15.0375C0.6539 13.4359 -0.00293725 11.4796 9.87431e-06 9.46875C9.87431e-06 7.00721 0.977853 4.64649 2.71843 2.90592C4.459 1.16534 6.81972 0.1875 9.28126 0.1875C11.7428 0.1875 14.1035 1.16534 15.8441 2.90592C17.5847 4.64649 18.5625 7.00721 18.5625 9.46875C18.5655 11.4787 17.9089 13.4341 16.6936 15.035L16.6928 15.0375C16.6928 15.0375 16.4396 15.3699 16.4017 15.4147L9.28126 23.8125ZM3.21639 14.0208C3.21807 14.0208 3.41382 14.2807 3.45854 14.3363L9.28126 21.2036L15.1116 14.3271C15.1487 14.2807 15.3461 14.0191 15.347 14.0183C16.3402 12.7097 16.877 11.1116 16.875 9.46875C16.875 7.45476 16.075 5.52326 14.6509 4.09916C13.2267 2.67505 11.2952 1.875 9.28126 1.875C7.26727 1.875 5.33577 2.67505 3.91167 4.09916C2.48756 5.52326 1.68751 7.45476 1.68751 9.46875C1.68574 11.1126 2.22226 12.7116 3.21639 14.0208Z" fill="#2BC09F"/>
</svg>
