<svg width="22" height="24" viewBox="0 0 22 24" fill="none" xmlns="http://www.w3.org/2000/svg">
<path d="M21.3491 16.7162L15.0938 22.8505L12.0728 19.8823L13.0835 18.8929L15.0938 20.8497L20.3384 15.7268L21.3491 16.7162ZM10.0625 7.77851H5.75V6.37134H10.0625V7.77851ZM10.0625 10.5928H5.75V9.18567H10.0625V10.5928ZM5.75 12H10.0625V13.4072H5.75V12ZM4.3125 7.77851H2.875V6.37134H4.3125V7.77851ZM4.3125 10.5928H2.875V9.18567H4.3125V10.5928ZM2.875 12H4.3125V13.4072H2.875V12ZM11.5 7.77851V2.14985H1.4375V21.8501H11.5V23.2573H0V0.742691H12.522L18.6875 6.7781V14.8143L17.25 16.2215V7.77851H11.5ZM12.9375 6.37134H16.228L12.9375 3.15026V6.37134Z" fill="#2BC09F"/>
</svg>
