<svg width="31" height="31" viewBox="0 0 31 31" fill="none" xmlns="http://www.w3.org/2000/svg">
<path d="M11.5415 12.2547C12.0699 13.2548 12.3461 14.3689 12.3461 15.5C12.3461 16.6311 12.0699 17.7452 11.5415 18.7453C11.4515 18.9158 11.2975 19.0437 11.1134 19.1007C10.9292 19.1577 10.7299 19.1392 10.5594 19.0493C10.3888 18.9593 10.261 18.8053 10.204 18.6212C10.147 18.437 10.1655 18.2377 10.2554 18.0672C10.6799 17.2781 10.9021 16.396 10.9021 15.5C10.9021 14.604 10.6799 13.7219 10.2554 12.9328C10.2109 12.8484 10.1835 12.756 10.1746 12.6609C10.1658 12.5659 10.1758 12.47 10.204 12.3788C10.2322 12.2876 10.2781 12.2029 10.3391 12.1294C10.4001 12.056 10.4749 11.9953 10.5594 11.9507C10.6438 11.9062 10.7362 11.8788 10.8313 11.8699C10.9263 11.8611 11.0222 11.8711 11.1134 11.8993C11.2046 11.9275 11.2893 11.9735 11.3628 12.0344C11.4362 12.0954 11.4969 12.1702 11.5415 12.2547ZM17.337 8.07816C17.1671 8.16907 17.0403 8.32372 16.9844 8.50812C16.9286 8.69251 16.9482 8.89155 17.0391 9.06145C18.0992 11.042 18.6539 13.2536 18.6539 15.5C18.6539 17.7464 18.0992 19.958 17.0391 21.9386C16.9925 22.0228 16.9631 22.1155 16.9527 22.2112C16.9422 22.3068 16.9508 22.4037 16.9781 22.496C17.0054 22.5883 17.0507 22.6743 17.1115 22.7489C17.1723 22.8236 17.2473 22.8854 17.3322 22.9308C17.4171 22.9762 17.5101 23.0043 17.606 23.0135C17.7018 23.0226 17.7985 23.0126 17.8904 22.9841C17.9824 22.9555 18.0677 22.909 18.1415 22.8471C18.2153 22.7853 18.2761 22.7095 18.3203 22.6239C19.4934 20.4326 20.1072 17.9855 20.1072 15.5C20.1072 13.0145 19.4934 10.5674 18.3203 8.37605C18.2294 8.20617 18.0747 8.07936 17.8903 8.02349C17.7059 7.96763 17.5069 7.98729 17.337 8.07816ZM13.9464 10.0157C13.8621 10.0605 13.7874 10.1215 13.7266 10.1951C13.6659 10.2688 13.6203 10.3537 13.5924 10.4451C13.5645 10.5364 13.5549 10.6323 13.5641 10.7273C13.5733 10.8224 13.6012 10.9147 13.6461 10.9989C14.3851 12.3846 14.7717 13.9308 14.7717 15.5012C14.7717 17.0716 14.3851 18.6179 13.6461 20.0035C13.5555 20.1737 13.5363 20.3729 13.5926 20.5573C13.6489 20.7417 13.7762 20.8962 13.9464 20.9868C14.1166 21.0773 14.3158 21.0966 14.5002 21.0402C14.6846 20.9839 14.8391 20.8567 14.9297 20.6864C15.7807 19.0906 16.2258 17.3098 16.2258 15.5012C16.2258 13.6926 15.7807 11.9118 14.9297 10.316C14.8394 10.1458 14.6852 10.0184 14.501 9.96188C14.3169 9.90533 14.1178 9.92424 13.9476 10.0145L13.9464 10.0157ZM27.8516 15.5C27.8516 17.9429 27.1272 20.331 25.77 22.3622C24.4127 24.3934 22.4837 25.9765 20.2267 26.9114C17.9698 27.8462 15.4863 28.0908 13.0903 27.6142C10.6944 27.1376 8.49353 25.9613 6.76613 24.2339C5.03873 22.5065 3.86236 20.3056 3.38577 17.9097C2.90919 15.5137 3.15379 13.0302 4.08865 10.7733C5.02351 8.51631 6.60664 6.58726 8.63784 5.23005C10.669 3.87284 13.0571 3.14844 15.5 3.14844C18.7747 3.15228 21.9141 4.45484 24.2296 6.77037C26.5452 9.08591 27.8477 12.2253 27.8516 15.5ZM26.3984 15.5C26.3984 13.3445 25.7593 11.2374 24.5617 9.44515C23.3642 7.65291 21.6621 6.25603 19.6707 5.43116C17.6792 4.60628 15.4879 4.39045 13.3738 4.81097C11.2597 5.23149 9.31782 6.26947 7.79365 7.79364C6.26947 9.31781 5.2315 11.2597 4.81098 13.3738C4.39046 15.4879 4.60629 17.6792 5.43116 19.6707C6.25604 21.6621 7.65292 23.3642 9.44516 24.5617C11.2374 25.7593 13.3445 26.3984 15.5 26.3984C18.3895 26.3952 21.1597 25.246 23.2028 23.2028C25.246 21.1597 26.3952 18.3895 26.3984 15.5Z" fill="black"/>
</svg>
