<svg width="27" height="27" viewBox="0 0 27 27" fill="none" xmlns="http://www.w3.org/2000/svg">
<path d="M13.5 12.244C11.9096 12.244 10.5474 11.644 9.41336 10.4441C8.27936 9.2442 7.713 7.80349 7.71429 6.12199C7.71429 4.43776 8.28064 2.99569 9.41336 1.79578C10.5461 0.598594 11.9083 0 13.5 0C15.0917 0 16.4539 0.598594 17.5866 1.79578C18.7194 2.99569 19.2857 4.43776 19.2857 6.12199C19.2857 7.80485 18.7194 9.24556 17.5866 10.4441C16.4539 11.6427 15.0917 12.2426 13.5 12.244ZM0 26.998V23.6411C0 22.799 0.231429 22.0113 0.694286 21.278C1.15843 20.5433 1.782 19.9733 2.565 19.5679C4.38557 18.6442 6.20679 17.9517 8.02864 17.4905C9.85179 17.028 11.6756 16.7967 13.5 16.7967C15.3257 16.7967 17.1495 17.028 18.9714 17.4905C20.7932 17.9531 22.6138 18.6455 24.4331 19.5679C25.2174 19.9733 25.8409 20.5433 26.3038 21.278C26.7679 22.0113 27 22.799 27 23.6411V27L0 26.998ZM1.92857 24.9573H25.0714V23.639C25.0714 23.1874 24.9339 22.7622 24.6587 22.3636C24.3823 21.9664 24.0004 21.6303 23.5131 21.3555C21.9266 20.542 20.2899 19.9189 18.603 19.4863C16.9187 19.0523 15.2177 18.8353 13.5 18.8353C11.7836 18.8353 10.0826 19.0523 8.397 19.4863C6.71014 19.9189 5.07343 20.542 3.48686 21.3555C2.99829 21.6303 2.61643 21.9664 2.34129 22.3636C2.06614 22.7622 1.92857 23.188 1.92857 23.6411V24.9573ZM13.5 10.2033C14.5607 10.2033 15.4691 9.80334 16.2251 9.0034C16.9811 8.20346 17.3584 7.24299 17.3571 6.12199C17.3571 4.99962 16.9798 4.03847 16.2251 3.23853C15.4704 2.43859 14.562 2.0393 13.5 2.04066C12.4393 2.04066 11.5316 2.43995 10.7769 3.23853C10.0221 4.03711 9.64414 4.99826 9.64286 6.12199C9.64286 7.24435 10.0209 8.20482 10.7769 9.0034C11.5329 9.80198 12.4406 10.202 13.5 10.2033Z" fill="black"/>
</svg>
