<svg width="35" height="35" viewBox="0 0 35 35" fill="none" xmlns="http://www.w3.org/2000/svg">
<path fill-rule="evenodd" clip-rule="evenodd" d="M15.2598 4.78623C15.5208 4.47313 15.8445 4.21821 16.21 4.03791C16.5756 3.85761 16.9749 3.75594 17.3822 3.73945C17.7895 3.72296 18.1957 3.79202 18.5746 3.94218C18.9536 4.09233 19.2968 4.32025 19.5823 4.61123L19.7398 4.78623L25.4739 11.6666H29.8271C30.1331 11.666 30.4358 11.73 30.7154 11.8545C30.995 11.9789 31.2451 12.1611 31.4495 12.3889C31.6538 12.6168 31.8077 12.8852 31.901 13.1767C31.9944 13.4681 32.0251 13.776 31.9912 14.0802L31.8571 15.1973L31.7112 16.2764L31.5916 17.0844L31.4531 17.9521L31.2956 18.8635L31.1177 19.8085L30.9194 20.7725C30.8144 21.2581 30.7021 21.7452 30.581 22.2294C30.2581 23.5098 29.8529 24.7681 29.3677 25.9962L29.0454 26.7837L28.7333 27.4954L28.4387 28.1283L28.3016 28.4112L27.9385 29.1258C27.4719 30.0154 26.591 30.5404 25.6591 30.6162L25.4258 30.625H9.55914C9.04928 30.629 8.54792 30.4943 8.10868 30.2354C7.66943 29.9764 7.30882 29.603 7.06539 29.155L6.72706 28.4987L6.46456 27.9591C6.41782 27.8598 6.37164 27.7601 6.32602 27.6602L6.03435 27.0054C5.36854 25.4588 4.82819 23.8611 4.41852 22.2279C4.33938 21.9108 4.26355 21.5928 4.19102 21.2741L3.98393 20.3291L3.79873 19.4046L3.63539 18.5106L3.48956 17.6546L3.36268 16.8466L3.25477 16.0985L3.12352 15.1025L3.02727 14.2916C3.01886 14.2173 3.0106 14.1429 3.00248 14.0685C2.97191 13.7819 2.99873 13.4921 3.08138 13.2161C3.16403 12.94 3.30085 12.6831 3.48385 12.4604C3.66685 12.2378 3.89237 12.0538 4.14724 11.9193C4.40212 11.7848 4.68124 11.7023 4.96831 11.6769L5.16664 11.6666H9.5256L15.2598 4.78623ZM14.5262 18.5529C14.4276 18.2088 14.2058 17.913 13.9032 17.7219C13.6006 17.5307 13.2382 17.4575 12.8851 17.5162C12.532 17.575 12.2128 17.7615 11.9884 18.0403C11.7639 18.3192 11.6499 18.6708 11.6679 19.0283L11.6869 19.1975L12.416 23.5725L12.4525 23.7387C12.5511 24.0828 12.7729 24.3786 13.0755 24.5698C13.3781 24.7609 13.7405 24.8341 14.0936 24.7754C14.4467 24.7166 14.7659 24.5301 14.9903 24.2513C15.2148 23.9724 15.3288 23.6208 15.3108 23.2633L15.2919 23.0941L14.5627 18.7191L14.5262 18.5529ZM22.1139 17.5204C21.7615 17.4616 21.3997 17.5343 21.0972 17.7246C20.7948 17.9149 20.5728 18.2097 20.4733 18.5529L20.4369 18.7191L19.7077 23.0941C19.6468 23.4611 19.7284 23.8374 19.9358 24.1461C20.1433 24.4548 20.4608 24.6726 20.8235 24.755C21.1862 24.8373 21.5667 24.778 21.8871 24.5891C22.2074 24.4001 22.4435 24.096 22.5471 23.7387L22.5835 23.5725L23.3127 19.1975C23.3759 18.8161 23.2852 18.4253 23.0604 18.1108C22.8356 17.7964 22.4952 17.584 22.1139 17.5204ZM17.4998 6.65289L13.3216 11.6666H21.6779L17.4998 6.65289Z" fill="black"/>
</svg>
