<svg width="15" height="10" viewBox="0 0 15 10" fill="none" xmlns="http://www.w3.org/2000/svg">
<path d="M13.8 0H1.2C1.01435 0 0.836301 0.075255 0.705025 0.20921C0.57375 0.343164 0.5 0.524845 0.5 0.714286V3.57143H1.1251C1.8223 3.57143 2.4691 4.05786 2.5811 4.76C2.61522 4.96503 2.60508 5.17518 2.5514 5.3758C2.49771 5.57641 2.40176 5.76266 2.27026 5.92154C2.13876 6.08041 1.97486 6.20809 1.79001 6.29567C1.60516 6.38324 1.4038 6.4286 1.2 6.42857H0.5V9.28571C0.5 9.47515 0.57375 9.65684 0.705025 9.79079C0.836301 9.92475 1.01435 10 1.2 10H13.8C13.9857 10 14.1637 9.92475 14.295 9.79079C14.4263 9.65684 14.5 9.47515 14.5 9.28571V6.42857H13.8C13.5962 6.4286 13.3948 6.38324 13.21 6.29567C13.0251 6.20809 12.8612 6.08041 12.7297 5.92154C12.5982 5.76266 12.5023 5.57641 12.4486 5.3758C12.3949 5.17518 12.3848 4.96503 12.4189 4.76C12.5309 4.05786 13.1777 3.57143 13.8749 3.57143H14.5V0.714286C14.5 0.524845 14.4263 0.343164 14.295 0.20921C14.1637 0.075255 13.9857 0 13.8 0ZM5.4 2.85714C5.58565 2.85714 5.7637 2.9324 5.89497 3.06635C6.02625 3.20031 6.1 3.38199 6.1 3.57143C6.1 3.76087 6.02625 3.94255 5.89497 4.0765C5.7637 4.21046 5.58565 4.28571 5.4 4.28571C5.21435 4.28571 5.0363 4.21046 4.90503 4.0765C4.77375 3.94255 4.7 3.76087 4.7 3.57143C4.7 3.38199 4.77375 3.20031 4.90503 3.06635C5.0363 2.9324 5.21435 2.85714 5.4 2.85714ZM4.84 7.42857L9.04 1.71429L10.16 2.57143L5.96 8.28572L4.84 7.42857ZM9.6 7.14286C9.41435 7.14286 9.2363 7.0676 9.10503 6.93365C8.97375 6.79969 8.9 6.61801 8.9 6.42857C8.9 6.23913 8.97375 6.05745 9.10503 5.9235C9.2363 5.78954 9.41435 5.71429 9.6 5.71429C9.78565 5.71429 9.9637 5.78954 10.095 5.9235C10.2262 6.05745 10.3 6.23913 10.3 6.42857C10.3 6.61801 10.2262 6.79969 10.095 6.93365C9.9637 7.0676 9.78565 7.14286 9.6 7.14286Z" fill="#A50000"/>
</svg>
